# xmcd
#
# Track frame offsets: 
#        150
#        17187
#        40493
#        63730
#        90617
#        112980
#        135030
#        151460
#        173944
#        188191
#        217285
#        237091
#        257112
#
# Disc length: 3604 seconds
#
# Revision: 0
# Processed by: cddbd v1.5.2PL0 Copyright (c) Steve Scherf et al.
# Submitted via: ExactAudioCopy v0.99pb5
#
DISCID=b60e120d
DTITLE=Baskerville Willy - No Ordinary Hound
DYEAR=2012
DGENRE=Blues
TTITLE0=No Ordinary Hound
TTITLE1=Love the Girl
TTITLE2=Green Coyote
TTITLE3=This Can't Be Right
TTITLE4=Come Home Now
TTITLE5=Illinois Volare
TTITLE6=Have to Laugh
TTITLE7=Maybe You Right
TTITLE8=Train That You Ride
TTITLE9=Rumble Bug
TTITLE10=Grind You Down
TTITLE11=If You Seek
TTITLE12=Return of the Baskerville
EXTD=
EXTT0=
EXTT1=
EXTT2=
EXTT3=
EXTT4=
EXTT5=
EXTT6=
EXTT7=
EXTT8=
EXTT9=
EXTT10=
EXTT11=
EXTT12=
PLAYORDER=
